<svg xmlns="http://www.w3.org/2000/svg" viewBox="0 0 100 100">
  <rect width="100" height="100" rx="22" fill="#7c4dff"/>
  <g transform="translate(15 15) scale(0.7)">
    <g stroke="#f3f0fb" stroke-width="8" stroke-linecap="round">
      <line x1="18" y1="82" x2="18" y2="50"/>
      <line x1="18" y1="50" x2="18" y2="18"/>
      <line x1="18" y1="18" x2="40" y2="40"/>
      <line x1="18" y1="50" x2="40" y2="40"/>
      <line x1="40" y1="40" x2="60" y2="61"/>
      <line x1="60" y1="61" x2="82" y2="82"/>
      <line x1="60" y1="61" x2="82" y2="50"/>
      <line x1="82" y1="82" x2="82" y2="50"/>
      <line x1="82" y1="50" x2="82" y2="18"/>
    </g>
    <g fill="#f3f0fb">
      <circle cx="18" cy="18" r="9"/>
      <circle cx="18" cy="50" r="9"/>
      <circle cx="18" cy="82" r="9"/>
      <circle cx="40" cy="40" r="9"/>
      <circle cx="60" cy="61" r="9"/>
      <circle cx="82" cy="50" r="9"/>
      <circle cx="82" cy="82" r="9"/>
      <circle cx="82" cy="18" r="12"/>
    </g>
  </g>
</svg>
